<svg width="314" height="312" viewBox="0 0 314 312" fill="none" xmlns="http://www.w3.org/2000/svg">
<g clip-path="url(#clip0_506_966)">
<path d="M45.5526 269.191C31.402 255.368 20.2689 238.894 12.1633 219.765C4.04793 200.646 0 179.466 0 156.219C0 132.973 4.04793 111.724 12.1633 92.454C20.2689 73.1885 31.402 56.71 45.5526 43.0283C59.7033 29.3465 76.3588 18.7588 95.5242 11.2553C114.69 3.75176 135.178 0 157 0C178.822 0 199.305 3.75176 218.471 11.2504C237.631 18.7539 254.292 29.3465 268.447 43.0234C282.598 56.7051 293.721 73.1836 301.837 92.4491C309.942 111.72 314 132.978 314 156.214C314 179.451 309.942 200.641 301.837 219.76C293.721 238.889 282.598 255.285 268.447 268.967C254.297 282.644 237.636 293.236 218.471 300.74C199.305 308.238 178.817 311.99 157 311.99C135.183 311.99 114.69 308.238 95.5291 300.74C76.3588 293.236 59.7081 282.722 45.5575 269.186L45.5526 269.191ZM86.6813 243.596C92.2771 257.429 100.612 269.123 111.667 278.682C122.722 288.247 137.83 293.027 157 293.027C176.17 293.027 191.273 288.247 202.333 278.682C213.388 269.123 221.64 257.356 227.099 243.377C232.553 229.408 236.015 214.547 237.495 198.804C238.964 183.071 239.707 168.873 239.707 156.219C239.707 143.566 238.964 129.299 237.495 113.415C236.015 97.5262 232.553 82.5971 227.099 68.623C221.64 54.6538 213.388 42.8821 202.333 33.3175C191.278 23.7627 176.165 18.9732 157 18.9732C137.835 18.9732 122.727 23.7579 111.667 33.3175C100.612 42.8821 92.2771 54.6538 86.6813 68.623C81.0757 82.602 77.6137 97.5311 76.2856 113.415C74.9575 129.299 74.2983 143.575 74.2983 156.219C74.2983 168.863 74.9623 183.071 76.2856 198.804C77.6137 214.547 81.0757 229.476 86.6813 243.596Z" fill="#666633"/>
<g opacity="0.6">
<path d="M156.486 97.5114C163.755 97.4333 170.927 98.8347 178.007 101.711C185.087 104.582 191.645 109.055 197.692 115.109C203.738 121.164 208.211 127.761 211.12 134.895C214.029 142.024 215.422 149.216 215.31 156.463C215.198 163.709 213.629 170.799 210.603 177.742C207.583 184.681 203.241 190.99 197.575 196.664C191.913 202.338 185.618 206.688 178.694 209.721C171.77 212.748 164.691 214.32 157.46 214.437C150.229 214.55 143.057 213.148 135.939 210.238C128.82 207.323 122.242 202.836 116.196 196.781C110.149 190.721 105.691 184.144 102.826 177.054C99.9558 169.959 98.5769 162.791 98.6939 155.545C98.8108 148.298 100.38 141.204 103.401 134.265C106.426 127.326 110.768 121.018 116.429 115.344C122.091 109.67 128.386 105.319 135.31 102.287C142.239 99.2546 149.294 97.6676 156.486 97.5163L156.486 97.5114ZM152.471 114.88C147.423 112.731 142.214 111.848 136.859 112.233C131.505 112.614 126.34 115.3 121.365 120.285C116.39 125.271 113.711 130.447 113.331 135.813C112.946 141.179 113.867 146.394 116.083 151.458C118.3 156.516 121.268 161.292 124.981 165.779C128.693 170.262 132.192 174.158 135.481 177.454C138.769 180.75 142.672 184.281 147.189 188.036C151.706 191.79 156.486 194.784 161.538 197.005C166.586 199.227 171.79 200.15 177.149 199.764C182.504 199.379 187.669 196.698 192.644 191.712C197.618 186.727 200.293 181.551 200.678 176.185C201.058 170.818 200.162 165.579 197.979 160.486C195.796 155.384 192.814 150.593 189.028 146.106C185.242 141.619 181.7 137.727 178.411 134.431C175.123 131.135 171.254 127.605 166.82 123.85C162.381 120.09 157.601 117.102 152.471 114.88Z" fill="#A96629"/>
</g>
<g opacity="0.6">
<path d="M156.507 97.609C163.792 97.5311 170.98 98.9295 178.075 101.799C185.169 104.664 191.742 109.127 197.801 115.169C203.856 121.211 208.344 127.794 211.259 134.912C214.174 142.026 215.57 149.203 215.458 156.434C215.346 163.664 213.773 170.739 210.741 177.668C207.714 184.591 203.363 190.886 197.684 196.548C192.01 202.21 185.702 206.551 178.763 209.577C171.824 212.598 164.73 214.167 157.483 214.284C150.237 214.396 143.049 212.997 135.916 210.094C128.782 207.185 122.19 202.707 116.13 196.665C110.07 190.619 105.602 184.055 102.731 176.981C99.8553 169.901 98.4734 162.748 98.5906 155.518C98.7078 148.287 100.28 141.207 103.307 134.284C106.34 127.36 110.69 121.065 116.364 115.403C122.038 109.741 128.347 105.4 135.286 102.374C142.229 99.3485 149.3 97.765 156.507 97.6139V97.609ZM152.483 114.94C147.425 112.796 142.205 111.914 136.838 112.299C131.472 112.679 126.296 115.359 121.311 120.334C116.325 125.309 113.64 130.473 113.259 135.828C112.873 141.183 113.796 146.387 116.018 151.439C118.239 156.487 121.213 161.252 124.934 165.73C128.655 170.203 132.161 174.091 135.457 177.38C138.752 180.669 142.664 184.192 147.19 187.939C151.717 191.686 156.507 194.672 161.57 196.889C166.629 199.106 171.844 200.027 177.215 199.642C182.581 199.257 187.757 196.582 192.743 191.608C197.728 186.633 200.409 181.468 200.795 176.113C201.176 170.759 200.277 165.53 198.09 160.449C195.902 155.357 192.914 150.577 189.12 146.099C185.326 141.622 181.776 137.738 178.48 134.449C175.184 131.16 171.307 127.638 166.863 123.891C162.415 120.139 157.625 117.157 152.483 114.94Z" fill="#A96629"/>
</g>
</g>
<defs>
<clipPath id="clip0_506_966">
<rect width="314" height="312" fill="white"/>
</clipPath>
</defs>
</svg>
